<?xml version="1.0" encoding="utf-8"?>
<!-- Generator: Adobe Illustrator 22.1.0, SVG Export Plug-In . SVG Version: 6.00 Build 0)  -->
<svg version="1.1" id="Layer_1" xmlns="http://www.w3.org/2000/svg" xmlns:xlink="http://www.w3.org/1999/xlink" x="0px" y="0px"
	 viewBox="0 0 32 32" style="enable-background:new 0 0 32 32;" xml:space="preserve">
<title>slack</title>
<path d="M6.7,20.2c0,1.9-1.5,3.4-3.4,3.4c-1.9,0-3.4-1.5-3.4-3.4c0-1.9,1.5-3.4,3.4-3.4h3.4V20.2z M8.4,20.2c0-1.9,1.5-3.4,3.4-3.4
	c1.8,0,3.4,1.5,3.4,3.4v8.4c0,1.9-1.5,3.4-3.4,3.4c-1.9,0-3.4-1.5-3.4-3.4V20.2z M11.8,6.7c-1.9,0-3.4-1.5-3.4-3.4
	C8.4,1.5,9.9,0,11.8,0c1.9,0,3.4,1.5,3.4,3.4v3.4H11.8z M11.8,8.4c1.9,0,3.4,1.5,3.4,3.4c0,1.9-1.5,3.4-3.4,3.4H3.4
	c-1.9,0-3.4-1.5-3.4-3.4c0-1.9,1.5-3.4,3.4-3.4H11.8z M25.3,11.8c0-1.9,1.5-3.4,3.4-3.4c1.9,0,3.4,1.5,3.4,3.4
	c0,1.9-1.5,3.4-3.4,3.4h-3.4V11.8z M23.6,11.8c0,1.9-1.5,3.4-3.4,3.4c-1.9,0-3.4-1.5-3.4-3.4V3.4c0-1.9,1.5-3.4,3.4-3.4
	c1.9,0,3.4,1.5,3.4,3.4V11.8z M20.2,25.3c1.9,0,3.4,1.5,3.4,3.4c0,1.9-1.5,3.4-3.4,3.4c-1.9,0-3.4-1.5-3.4-3.4v-3.4H20.2z
	 M20.2,23.6c-1.9,0-3.4-1.5-3.4-3.4c0-1.9,1.5-3.4,3.4-3.4h8.4c1.9,0,3.4,1.5,3.4,3.4c0,1.9-1.5,3.4-3.4,3.4H20.2z"/>
</svg>
